<svg width="236" height="93" viewBox="0 0 236 93" fill="none" xmlns="http://www.w3.org/2000/svg">
<path d="M56.348 74.8986C55.1451 74.8017 53.7771 74.8004 52.244 74.8948L49.1817 75.1476C48.5881 75.2269 47.7377 75.3006 46.6305 75.3688C46.5695 75.0733 46.5207 74.6275 46.484 74.0313L45.2742 74.1699C45.0048 71.8781 44.7062 68.0706 44.3784 62.7474L43.7668 54.8981C43.66 55.2467 43.4464 55.9438 43.1261 56.9895C42.8483 58.0325 42.5549 58.82 42.2457 59.352C41.9338 59.8415 41.6288 60.0954 41.3307 60.1137C40.9901 60.1347 40.538 59.7351 39.9745 58.9148C39.3331 58.9116 38.4996 57.8728 37.4742 55.7986C37.4946 56.8233 37.5651 58.3151 37.6857 60.2741C37.9165 64.0217 38.4442 69.1189 39.2687 75.5657C37.6236 75.9235 35.8641 76.1601 33.9903 76.2755L31.9501 76.4653C30.9281 76.5282 30.1124 76.4716 29.5031 76.2954C28.939 76.1591 28.6385 75.7929 28.6018 75.1967L28.2824 75.2164C27.9417 75.2373 27.6279 75.0002 27.3409 74.5049C27.24 74.2546 27.1145 73.2578 26.9644 71.5144C26.8542 69.7258 26.7021 67.2558 26.508 64.1044C25.7973 52.5636 25.1688 41.317 24.6225 30.3645C25.7487 29.9104 27.0358 29.6388 28.4837 29.5496C29.2928 29.4998 29.9116 29.4831 30.3401 29.4994L32.3882 29.4374C33.1547 29.3902 33.7709 29.3309 34.2367 29.2594L35.2136 30.5458L35.593 30.4583C36.4598 31.3454 37.4721 33.2067 38.63 36.0422L39.3032 37.6038C39.5148 36.1801 39.8849 34.5543 40.4135 32.7263C40.9821 30.8532 41.5383 29.4724 42.082 28.5839C42.6835 28.6324 43.1971 28.6435 43.623 28.6173C44.3895 28.57 45.7923 28.4409 47.8311 28.2298C49.4841 27.9998 51.0133 27.8415 52.4186 27.755L52.4334 29.0365L53.7749 28.9539C53.7979 30.0211 53.8894 31.8536 54.0493 34.4514L54.5263 41.1547C54.6607 42.6426 54.821 44.8984 55.0072 47.922L55.1527 50.2855C55.2498 51.8612 55.2806 53.0562 55.2453 53.8706L55.2414 53.8067L56.348 74.8986ZM53.2463 52.6472C53.279 51.7902 53.2442 50.5313 53.142 48.8704L52.9885 46.3792C52.8102 43.4833 52.6551 41.3127 52.5234 39.8674L52.0543 33.2918C51.9205 31.1199 51.8422 29.5004 51.8192 28.4331C50.499 28.5144 49.0124 28.6701 47.3595 28.9001L43.4068 29.2718C42.8106 29.3085 42.4686 29.3082 42.3808 29.2708C42.029 29.8055 41.6609 30.7686 41.2763 32.1602C40.8892 33.5092 40.5433 34.8343 40.2387 36.1355C40.0357 37.003 39.8274 37.7852 39.6138 38.4824C39.4429 39.1768 39.3135 39.5054 39.2257 39.4681C38.9702 39.4838 38.6485 39.1189 38.2606 38.3733C37.8727 37.6278 37.2843 36.403 36.4954 34.6989C36.0465 33.6578 35.6016 32.6807 35.1606 31.7674C34.717 30.8115 34.337 30.1937 34.0206 29.914L33.9567 29.9179C33.4908 29.9893 32.7469 30.0565 31.7248 30.1195L29.4213 30.1972L28.3992 30.2602C26.9939 30.3467 25.9571 30.5174 25.2888 30.7723C25.8325 41.6822 26.4518 52.7798 27.1468 64.0651C27.4248 68.5792 27.6245 71.4737 27.7457 72.7487C27.907 73.9784 28.0727 74.5881 28.2431 74.5776L33.0379 74.3464C34.6562 74.2467 36.035 74.0763 37.1743 73.8352C36.4318 68.0245 35.9372 63.1176 35.6907 59.1145C35.494 55.9206 35.4276 52.7613 35.4917 49.6368L35.7227 50.2638L36.3163 51.5738C37.1183 53.4908 37.8368 55.0923 38.4717 56.3784C39.1067 57.6645 39.6157 58.2957 39.999 58.2721C40.1694 58.2616 40.436 57.7322 40.7989 56.6839C41.1618 55.6356 41.5195 54.5022 41.8719 53.2835C42.6567 50.7559 43.1824 49.2273 43.449 48.6979C44.0447 52.1238 44.612 57.5178 45.1509 64.8799C45.2113 65.8594 45.3191 67.2634 45.4745 69.092C45.6272 70.878 45.7603 72.3446 45.8737 73.4918L49.8941 73.18L52.1938 73.0384C52.6622 73.0096 53.3675 73.0089 54.3096 73.0364L53.2463 52.6472ZM65.9555 26.8572L67.2331 26.7785L67.5094 30.224C67.7467 32.6887 67.9034 34.5386 67.9795 35.7736C67.5556 36.5264 66.5558 36.9513 64.9801 37.0484C64.5969 37.072 63.7638 37.0805 62.481 37.0741L62.5449 37.0701L60.3691 37.14C59.5173 37.1925 58.7734 37.2596 58.1372 37.3416L58.0546 36.0001L56.781 36.1427C56.7311 35.3335 56.6138 34.1225 56.429 32.5094C56.2232 30.5557 56.0743 28.8336 55.9826 27.3431L55.8999 26.0017L65.8769 25.5796L65.9555 26.8572ZM56.641 27.6232C56.7223 28.9433 56.8606 30.4951 57.056 32.2785C57.2303 33.7211 57.3371 34.7619 57.3765 35.4007L58.4624 35.3338C59.1012 35.2944 60.0194 35.2806 61.2171 35.2924L63.5207 35.2146C64.926 35.1281 65.7433 34.864 65.9726 34.4224C65.8887 33.0597 65.7307 31.1885 65.4986 28.8089C65.4089 28.045 65.3351 27.1946 65.2774 26.2577L56.5781 26.6011L56.641 27.6232ZM67.0647 40.7032L68.3541 40.8161C68.5036 43.2435 68.6879 46.9298 68.907 51.875C69.0074 55.5879 69.1769 59.382 69.4156 63.2573C69.649 67.0475 69.9361 70.3213 70.277 73.0789C69.9572 73.4406 69.5032 73.7037 68.9149 73.8681C68.3266 74.0326 67.5639 74.1437 66.627 74.2014C65.3921 74.2775 64.4539 74.3139 63.8124 74.3106L63.8763 74.3067L62.3393 74.3372C61.4024 74.3949 60.6211 74.5499 59.9954 74.8022C59.9771 74.5041 59.9869 73.9691 60.0248 73.1973C59.3913 73.3219 58.9294 73.4572 58.6392 73.6033C58.6764 70.7369 58.6019 67.7919 58.4157 64.7683C58.3108 63.0649 58.1108 60.5123 57.8158 57.1107C57.5208 53.7091 57.3183 51.114 57.2081 49.3253C57.0245 46.3443 56.9808 43.2051 57.077 39.9076C57.3751 39.8892 57.5867 39.8548 57.7118 39.8044L58.726 39.6137C59.0667 39.5927 59.7081 39.5959 60.6502 39.6234C61.6323 39.6057 62.677 39.5627 63.7842 39.4945L65.2535 39.404L66.9979 39.6172L67.0647 40.7032ZM63.8236 40.1333C62.4183 40.2199 61.0742 40.2599 59.7913 40.2534L57.9349 40.3036L57.6794 40.3193L57.6833 40.3832C57.5668 42.656 57.6187 45.581 57.839 49.1582C57.9387 50.7765 58.1386 53.329 58.4389 56.8159C58.7391 60.3027 58.9456 62.9617 59.0584 64.7929C59.2367 67.6887 59.3129 70.313 59.2868 72.6657C59.3693 72.6179 59.7087 72.5756 60.3049 72.5389C61.1992 72.4838 61.9245 72.4605 62.4807 72.469L65.3592 72.3559C66.2961 72.2982 66.9762 72.2349 67.3994 72.1661C67.8652 72.0946 68.1555 71.9485 68.2701 71.7277C67.9135 68.7146 67.6172 65.2917 67.3812 61.459C67.1242 57.2855 66.9336 53.1508 66.8096 49.0546C66.6483 45.0463 66.5086 42.084 66.3906 40.1676L66.3787 39.9759L63.8236 40.1333ZM80.102 39.9644C80.6608 40.0154 81.0068 40.0796 81.1398 40.1569C83.52 39.2409 85.8173 38.7147 88.0318 38.5783C89.0964 38.5127 90.016 38.5202 90.7904 38.6008C91.5622 38.6387 91.9507 38.7003 91.9559 38.7855L92.0149 39.7437C92.8745 39.819 93.307 39.8992 93.3122 39.9844L93.5827 45.418C93.5847 46.1446 93.6211 47.0828 93.6919 48.2326C93.7339 48.914 93.8778 50.2089 94.1235 52.1174L92.6229 51.6969L92.6907 51.7568L91.9084 51.5485L91.9762 51.6085C90.2465 51.2875 89.081 51.1028 88.4795 51.0544C87.9207 51.0033 87.4283 50.9909 87.0024 51.0171C86.5766 51.0433 86.2785 51.0617 86.1081 51.0722C84.6602 51.1613 83.5926 51.5263 82.9054 52.1671C82.2581 52.7627 81.9804 53.8057 82.0722 55.2962C82.5651 60.5238 82.9938 66.0974 83.3584 72.0168L83.4056 72.7834C82.0665 73.2506 80.822 73.5196 79.6722 73.5904C78.9908 73.6323 78.4784 73.6425 78.1351 73.6209L76.2148 73.6751L75.4483 73.7223C74.8095 73.7616 74.1946 73.8422 73.6037 73.9641L73.5171 72.5588L72.2474 72.7652L71.44 60.696C71.0243 55.3354 70.7313 51.2711 70.5608 48.503C70.4218 46.2459 70.2769 43.1984 70.126 39.3604C71.1559 39.4253 72.118 39.4301 73.0124 39.375C73.353 39.3541 73.904 39.2774 74.6653 39.145C75.4666 38.9674 76.5486 38.8367 77.9114 38.7527C79.3167 38.6662 80.0351 38.8784 80.0666 39.3895L80.102 39.9644ZM79.4278 39.4288C79.4225 39.3436 79.1644 39.3168 78.6534 39.3482C77.248 39.4348 76.0596 39.5721 75.088 39.7602C74.1137 39.9057 73.435 39.9902 73.0517 40.0138L72.2851 40.061C71.7315 40.0951 71.2392 40.0827 70.8081 40.0238C70.8042 41.3492 70.8809 43.2895 71.0383 45.8446L71.2783 49.7412C71.4383 52.339 71.713 56.1052 72.1024 61.04L72.8429 72.0232C73.3513 71.9491 74.0527 71.8846 74.947 71.8295L78.4004 71.6809C79.4224 71.618 80.4153 71.4286 81.3791 71.1128L81.3633 70.8572C81.2243 68.6002 81.0021 65.6857 80.6966 62.1137C80.3911 58.5417 80.1768 55.755 80.0535 53.7534C79.9565 52.1777 80.2942 51.0669 81.0666 50.4208C81.8789 49.7296 83.0943 49.3341 84.7125 49.2345C84.9681 49.2187 85.33 49.1965 85.7985 49.1676C86.3069 49.0935 86.8844 49.1007 87.5311 49.1891C88.2177 49.2324 89.0586 49.3516 90.0538 49.5467C90.272 49.6188 90.4902 49.6909 90.7084 49.7629C90.9665 49.7898 91.2047 49.8392 91.4228 49.9113L92.0095 50.0675C91.9381 49.6017 91.8749 48.9216 91.8198 48.0273L91.6742 45.6638L91.3171 38.8248C91.3119 38.7396 90.8621 38.7246 89.9678 38.7797C88.3496 38.8793 86.4476 39.2316 84.262 39.8364C82.1163 40.396 80.5708 40.9828 79.6254 41.5967C79.6071 41.2986 79.5727 41.087 79.5222 40.9619C79.5143 40.8341 79.5078 40.7277 79.5025 40.6425L79.4278 39.4288ZM121.996 38.0896C122.124 38.7657 122.199 39.2954 122.223 39.6787L122.262 40.3175C122.29 41.4699 122.371 43.1321 122.505 45.304L123.009 52.4545C123.152 54.0701 123.321 56.4749 123.518 59.6689C123.673 62.1814 123.767 64.7618 123.802 67.41L123.83 67.8572C123.885 68.7515 123.862 69.4155 123.76 69.8492C123.659 70.283 123.292 70.5834 122.661 70.7505L121.767 70.8055C121.171 70.8423 120.402 70.8469 119.46 70.8194L117.603 70.8696C117.305 70.888 116.861 70.9581 116.27 71.08L114.868 71.2304C114.176 71.102 113.703 70.7037 113.448 70.0355C112.881 69.8566 112.526 69.6434 112.383 69.3957C110.252 70.8949 108.101 71.7113 105.929 71.8451C103.672 71.9841 101.61 71.1279 99.7434 69.2764C97.9194 67.4224 96.4484 65.055 95.3305 62.1743C94.2526 59.2483 93.6258 56.3587 93.4501 53.5055C93.2508 50.2689 93.6339 47.4667 94.5995 45.0989C95.5625 42.6885 96.9655 40.8281 98.8084 39.5176C100.694 38.2046 102.85 37.4733 105.278 37.3238C106.47 37.2504 107.391 37.2792 108.04 37.4102C108.732 37.5386 109.376 37.9264 109.971 38.5737C110.001 38.3581 110.023 38.0148 110.036 37.5437C110.05 37.0727 110.138 36.768 110.301 36.6298C110.463 36.4915 110.736 36.4106 111.119 36.387C111.503 36.3634 111.846 36.385 112.149 36.4518C112.492 36.4734 112.813 36.475 113.111 36.4567L113.686 36.4213C114.793 36.3531 116.908 36.3297 120.03 36.3512L120.64 36.8907L120.747 37.5894L121.386 37.5501L121.996 38.0896ZM113.023 37.1033L111.294 37.1457C110.868 37.1719 110.63 37.4644 110.579 38.0233C110.525 38.5396 110.528 39.2874 110.589 40.2669L110.608 40.5863C110.167 39.673 109.636 39.0218 109.013 38.6327C108.391 38.2435 107.715 38.0287 106.986 37.9881C106.257 37.9475 105.232 37.9679 103.912 38.0492C101.913 38.215 100.124 39.0092 98.5441 40.4316C97.0045 41.8089 95.8344 43.6336 95.0339 45.9057C94.2334 48.1779 93.9184 50.698 94.0889 53.4661C94.2436 55.9787 94.743 58.5342 95.587 61.1325C96.431 63.7309 97.612 65.9024 99.1301 67.6471C100.688 69.3465 102.489 70.1333 104.533 70.0074C105.981 69.9182 107.451 69.4857 108.942 68.7099C110.473 67.8889 111.738 66.9133 112.737 65.7831C112.753 66.0386 112.733 66.4032 112.676 66.8769C112.617 67.308 112.598 67.6939 112.619 68.0346C112.664 68.7586 112.948 69.2113 113.473 69.3927C113.813 69.3718 114.279 69.3003 114.87 69.1784L116.208 69.0319L118.319 68.966C119.262 68.9935 119.946 68.9941 120.371 68.9679L121.138 68.9206C121.473 68.8145 121.676 68.631 121.745 68.3703C121.855 68.0643 121.894 67.6558 121.862 67.1448L121.807 66.2505C121.823 63.7274 121.736 60.9328 121.547 57.8666L121.051 50.8438C120.771 47.6977 120.582 45.3155 120.482 43.6973C120.359 41.6957 120.287 40.1826 120.267 39.1579L120.228 38.5191C120.207 38.1784 120.132 37.67 120.005 36.9939C118.808 36.9822 116.714 37.0042 113.726 37.06L113.023 37.1033ZM107.888 46.3965C108.953 46.3309 109.705 46.3915 110.144 46.5782C110.623 46.7197 110.946 47.1059 111.113 47.7368C111.277 48.3252 111.404 49.3433 111.493 50.7912L111.71 54.3046C111.804 55.8377 111.792 57.0353 111.675 57.8975C111.599 58.7571 111.278 59.4395 110.711 59.9446C110.186 60.4472 109.327 60.7352 108.135 60.8086C106.389 60.9161 104.964 60.3413 103.861 59.0841C102.757 57.8269 102.145 56.2188 102.025 54.2598C101.938 52.8545 101.996 51.7181 102.199 50.8506C102.384 49.6851 102.964 48.6875 103.939 47.858C104.911 46.986 106.228 46.4988 107.888 46.3965ZM104.206 52.2018C104.003 53.0693 103.941 54.1418 104.02 55.4194C104.224 58.7411 105.583 60.3246 108.095 60.1698C109.16 60.1043 109.912 59.8228 110.352 59.3255C110.791 58.8282 111.029 58.1724 111.064 57.358C111.142 56.541 111.13 55.3021 111.028 53.6412L110.925 51.9804L110.871 50.0601C110.829 49.3787 110.693 48.8955 110.461 48.6105C110.273 48.3229 109.88 48.1975 109.284 48.2342C107.794 48.326 106.622 48.7401 105.77 49.4766C104.917 50.213 104.395 51.1001 104.202 52.1379L104.206 52.2018ZM135.017 37.5442C137.025 36.1381 139.243 35.3603 141.67 35.2108C143.033 35.1269 144.368 35.2798 145.674 35.6695C146.98 36.0593 147.983 36.7243 148.682 37.6644L149.484 38.1921C150.644 38.9756 151.418 42.5188 151.806 48.8215C151.908 50.4823 152.019 52.9762 152.139 56.3032C152.253 59.545 152.356 61.9111 152.447 63.4016C152.552 65.1051 152.703 66.8485 152.898 68.6318C151.378 68.9392 149.596 69.1558 147.552 69.2817L143.719 69.5177C143.658 69.2223 143.61 68.7977 143.576 68.2441L142.363 68.3188C142.154 67.0065 141.931 64.434 141.695 60.6013L141.498 57.4073C141.346 54.9373 141.186 53.0236 141.016 51.6661C140.847 50.3086 140.542 49.1732 140.101 48.2599C139.753 48.1531 139.302 48.1168 138.748 48.1509C137.471 48.2296 136.602 48.7105 136.144 49.5937C135.728 50.4743 135.595 52.1282 135.744 54.5556C135.815 55.7055 135.956 57.2998 136.167 59.3387C136.383 61.4628 136.522 63.0145 136.582 63.994C136.695 65.8252 136.708 67.4274 136.621 68.8007L136.665 69.5033C135.198 69.9784 133.975 70.2461 132.995 70.3064C132.399 70.3431 131.929 70.3507 131.586 70.3291L130.049 70.3596L129.346 70.4029C128.707 70.4422 128.092 70.5229 127.502 70.6447L127.415 69.2394L126.145 69.4458L125.338 57.3767C124.922 52.0161 124.629 47.9517 124.459 45.1836C124.32 42.9266 124.175 39.8791 124.024 36.0411C125.054 36.1059 126.016 36.1108 126.91 36.0557C127.251 36.0347 127.801 35.9367 128.559 35.7618C129.361 35.5842 130.443 35.4534 131.805 35.3695C132.955 35.2987 133.567 35.5175 133.641 36.0259C133.657 36.2814 133.863 36.5038 134.259 36.6931C134.696 36.8373 134.942 37.0145 134.997 37.2248L135.017 37.5442ZM132.224 35.9208C131.032 35.9942 129.697 36.1833 128.219 36.488C127.543 36.6152 127.12 36.684 126.95 36.6945L126.183 36.7417C125.629 36.7758 125.137 36.7633 124.706 36.7044C124.702 38.0298 124.779 39.9701 124.936 42.5253L125.176 46.4219C125.336 49.0196 125.611 52.7859 126 57.7206L126.741 68.7038C127.249 68.6298 127.929 68.5665 128.781 68.5141L131.851 68.3891C132.745 68.334 133.674 68.1486 134.638 67.8327L134.622 67.5772C134.706 66.1614 134.694 64.5805 134.587 62.8344C134.519 61.7272 134.376 60.1116 134.16 57.9875C133.944 55.8635 133.802 54.2478 133.733 53.1406C133.576 50.5854 133.789 48.841 134.373 47.9074C134.954 46.9311 135.947 46.3997 137.353 46.3132C138.886 46.2188 139.894 46.6269 140.377 47.5376C140.901 48.403 141.241 49.408 141.397 50.5526C141.55 51.6546 141.661 52.4172 141.73 52.8405C141.855 53.474 141.96 54.4934 142.047 55.8988L142.184 58.1345L142.475 62.8616L142.601 64.9057C142.68 66.1833 142.779 67.0963 142.898 67.6446L146.607 67.4803C148.14 67.3859 149.56 67.1916 150.867 66.8974C150.683 65.2843 150.557 63.9455 150.492 62.8809C150.4 61.3903 150.294 58.9816 150.175 55.6547C150.045 52.1574 149.93 49.5996 149.831 47.9813C149.65 45.0429 149.398 42.6859 149.075 40.9104C148.749 39.0923 148.293 37.9448 147.708 37.4679C146.179 36.2369 144.158 35.6988 141.646 35.8535C140.283 35.9374 139.082 36.2251 138.044 36.7165C137.005 37.208 136.035 37.7593 135.132 38.3707C134.227 38.9394 133.63 39.3181 133.343 39.5068L133.316 38.0337C133.227 36.5857 132.863 35.8814 132.224 35.9208ZM179.566 25.6313C179.804 29.5066 180.237 35.144 180.864 42.5435C181.019 44.372 181.201 46.6265 181.408 49.3068C181.616 51.9871 181.828 55.0732 182.043 58.5653C182.284 62.4832 182.434 65.2739 182.494 66.9374L178.665 67.2373C177.816 67.3323 176.561 67.431 174.9 67.5333C174.134 67.5805 173.532 67.532 173.096 67.3879C172.702 67.2412 172.49 66.9123 172.458 66.4012L172.45 66.2735L171.616 66.2608L171.48 66.1409C170.431 67.1459 169.076 67.6996 167.415 67.8019C165.541 67.9173 163.859 67.6789 162.369 67.0867C160.922 66.4919 159.696 65.6697 158.691 64.6202C155.161 62.1444 153.145 56.8183 152.641 48.6418C152.439 45.3627 152.729 42.438 153.511 39.8677C154.294 37.2975 155.599 35.5926 157.428 34.7533C158.965 34.0174 160.925 33.5761 163.31 33.4292C165.865 33.2719 167.847 33.5132 169.254 34.1532L168.725 27.6454C168.665 26.666 168.635 25.4922 168.636 24.1242L168.67 21.5573L168.627 20.8546C168.614 20.6417 169.112 20.3973 170.121 20.1214C171.173 19.8429 172.316 19.6656 173.551 19.5896C175.212 19.4873 176.667 19.5259 177.918 19.7053L177.985 20.7913L179.274 20.9042L179.566 25.6313ZM180.46 65.139C180.411 63.6459 180.289 61.3236 180.095 58.1723C179.882 54.7228 179.672 51.6579 179.464 48.9776C179.254 46.2547 179.07 43.9577 178.912 42.0866C178.269 34.4316 177.822 28.56 177.57 24.4717L177.311 20.2557C176.406 20.1404 175.166 20.1313 173.59 20.2284C172.525 20.2939 171.527 20.3981 170.596 20.541C169.704 20.6387 169.261 20.7301 169.266 20.8153L169.309 21.5179L169.319 23.7616C169.284 24.5759 169.32 25.8561 169.428 27.6022L169.608 30.5406C169.726 32.457 169.847 34.0739 169.971 35.3915C169.772 34.9335 169.023 34.5735 167.725 34.3115C166.426 34.0495 164.946 33.9697 163.286 34.0719C161.369 34.19 159.492 34.6048 157.655 35.3164C155.906 36.0653 154.679 37.6584 153.974 40.0957C153.312 42.5303 153.081 45.3659 153.28 48.6025C153.591 52.2596 154.079 55.3287 154.745 57.8098C155.453 60.2883 156.711 62.3268 158.52 63.9254C160.368 65.4787 162.974 66.1517 166.339 65.9446C168.51 65.8108 170.028 64.7769 170.893 62.8428C170.925 62.6698 171.005 62.5794 171.132 62.5715C171.303 62.561 171.482 63.0416 171.67 64.0132C171.858 64.9848 171.912 65.5158 171.832 65.6062C172.819 65.6737 173.909 65.6707 175.102 65.5972L177.909 65.3602C178.502 65.2809 179.353 65.2072 180.46 65.139ZM166.68 41.3009C167.958 41.2223 168.863 41.3375 169.395 41.6467C169.924 41.9134 170.282 42.5112 170.467 43.4402C170.695 44.3666 170.883 46.0222 171.029 48.407C171.161 50.5363 171.159 52.2463 171.025 53.537C170.933 54.8251 170.57 55.8734 169.936 56.6819C169.342 57.4452 168.363 57.8688 167.001 57.9527C165.255 58.0603 163.798 57.3164 162.631 55.7211C161.464 54.1258 160.811 52.1997 160.672 49.9426C160.57 48.2818 160.643 47.0376 160.891 46.2101C161.173 43.1576 163.103 41.5212 166.68 41.3009ZM170.241 46.019C170.17 44.8692 169.994 44.0892 169.712 43.6791C169.473 43.2663 168.928 43.0862 168.076 43.1386C164.839 43.338 163.111 44.7696 162.89 47.4335L162.834 47.5652C162.615 48.1772 162.543 49.0793 162.616 50.2717C162.915 55.1265 164.363 57.4739 166.961 57.314C168.154 57.2405 169.006 56.8461 169.517 56.1306C170.069 55.3699 170.373 54.4107 170.43 53.253C170.527 52.0501 170.514 50.4479 170.391 48.4464L170.241 46.019ZM210.703 32.6265C210.831 33.3026 210.906 33.8323 210.93 34.2156L210.969 34.8543C210.997 36.0068 211.078 37.669 211.212 39.8408L211.716 46.9914C211.859 48.607 212.028 51.0118 212.225 54.2057C212.379 56.7183 212.474 59.2987 212.509 61.9469L212.537 62.3941C212.592 63.2884 212.569 63.9524 212.467 64.3861C212.365 64.8198 211.999 65.1202 211.368 65.2873L210.474 65.3424C209.878 65.3791 209.109 65.3838 208.166 65.3563L206.31 65.4065C206.012 65.4249 205.567 65.495 204.976 65.6169L203.575 65.7673C202.883 65.6389 202.41 65.2406 202.155 64.5723C201.588 64.3935 201.233 64.1803 201.09 63.9326C198.959 65.4317 196.808 66.2482 194.636 66.3819C192.379 66.521 190.317 65.6647 188.45 63.8133C186.626 61.9593 185.155 59.5919 184.037 56.7111C182.96 53.7852 182.333 50.8956 182.157 48.0423C181.958 44.8058 182.341 42.0036 183.306 39.6358C184.269 37.2254 185.672 35.3649 187.515 34.0545C189.401 32.7415 191.557 32.0102 193.985 31.8607C195.177 31.7873 196.098 31.816 196.747 31.947C197.439 32.0754 198.083 32.4633 198.678 33.1105C198.708 32.895 198.729 32.5517 198.743 32.0806C198.757 31.6095 198.845 31.3049 199.008 31.1666C199.17 31.0284 199.443 30.9475 199.826 30.9239C200.209 30.9002 200.553 30.9219 200.856 30.9887C201.199 31.0103 201.52 31.0119 201.818 30.9935L202.393 30.9581C203.5 30.8899 205.615 30.8666 208.737 30.8881L209.347 31.4276L209.454 32.1263L210.093 32.0869L210.703 32.6265ZM201.73 31.6402L200.001 31.6825C199.575 31.7088 199.337 32.0013 199.286 32.5602C199.232 33.0764 199.235 33.8243 199.296 34.8038L199.315 35.1232C198.874 34.2099 198.343 33.5587 197.72 33.1696C197.098 32.7804 196.422 32.5655 195.693 32.525C194.964 32.4844 193.939 32.5047 192.619 32.586C190.62 32.7519 188.831 33.546 187.251 34.9685C185.711 36.3457 184.541 38.1704 183.741 40.4426C182.94 42.7148 182.625 45.2349 182.796 48.003C182.951 50.5156 183.45 53.071 184.294 55.6694C185.138 58.2678 186.319 60.4393 187.837 62.1839C189.395 63.8834 191.196 64.6702 193.24 64.5443C194.688 64.4551 196.158 64.0226 197.649 63.2468C199.18 62.4258 200.445 61.4502 201.444 60.32C201.46 60.5755 201.44 60.9401 201.383 61.4138C201.324 61.8449 201.305 62.2308 201.326 62.5715C201.371 63.2954 201.655 63.7482 202.179 63.9296C202.52 63.9086 202.986 63.8372 203.577 63.7153L204.914 63.5688L207.026 63.5029C207.969 63.5303 208.653 63.531 209.078 63.5047L209.845 63.4575C210.18 63.3514 210.383 63.1679 210.452 62.9072C210.562 62.6012 210.601 62.1927 210.569 61.6817L210.514 60.7873C210.53 58.2643 210.443 55.4697 210.254 52.4035L209.758 45.3807C209.478 42.2346 209.289 39.8524 209.189 38.2341C209.066 36.2326 208.994 34.7195 208.974 33.6948L208.934 33.056C208.913 32.7153 208.839 32.2069 208.712 31.5308C207.515 31.519 205.421 31.5411 202.432 31.5969L201.73 31.6402ZM196.595 40.9334C197.66 40.8678 198.412 40.9284 198.851 41.1151C199.33 41.2566 199.653 41.6428 199.82 42.2737C199.984 42.862 200.111 43.8802 200.2 45.3281L200.417 48.8414C200.511 50.3745 200.499 51.5722 200.381 52.4344C200.306 53.294 199.985 53.9764 199.417 54.4815C198.893 54.9841 198.034 55.2721 196.842 55.3455C195.096 55.453 193.671 54.8782 192.568 53.621C191.464 52.3637 190.852 50.7556 190.732 48.7967C190.645 47.3914 190.703 46.255 190.906 45.3875C191.091 44.2219 191.671 43.2244 192.646 42.3949C193.618 41.5228 194.934 41.0357 196.595 40.9334ZM192.913 46.7387C192.71 47.6062 192.648 48.6787 192.727 49.9563C192.931 53.278 194.29 54.8614 196.802 54.7067C197.867 54.6411 198.619 54.3597 199.059 53.8624C199.498 53.3651 199.736 52.7093 199.771 51.8949C199.849 51.0779 199.837 49.839 199.735 48.1781L199.632 46.5173L199.578 44.597C199.536 43.9156 199.4 43.4324 199.168 43.1474C198.98 42.8598 198.587 42.7344 197.991 42.7711C196.5 42.8629 195.329 43.277 194.477 44.0134C193.624 44.7499 193.102 45.637 192.909 46.6748L192.913 46.7387Z" fill="white"/>
<mask id="path-2-inside-1_3_26" fill="white">
<path d="M2.99432 14.0151L228.567 0.122919L233.362 77.9754L7.78896 91.8676L2.99432 14.0151Z"/>
</mask>
<path d="M3.05579 15.0132L228.628 1.12103L228.505 -0.87519L2.93285 13.017L3.05579 15.0132ZM233.3 76.9773L7.72749 90.8695L7.85043 92.8657L233.423 78.9735L233.3 76.9773Z" fill="white" mask="url(#path-2-inside-1_3_26)"/>
</svg>
