<svg width="119" height="119" viewBox="0 0 119 119" fill="none" xmlns="http://www.w3.org/2000/svg">
<path fill-rule="evenodd" clip-rule="evenodd" d="M6.33314 6.33311C4.25593 8.41954 2.9435 11.2658 2.84305 14.4176L0.751216 80.0538C0.644634 83.398 1.93911 86.6348 4.32232 88.9833L31.2001 115.47C33.467 117.703 36.5284 118.945 39.7109 118.922L79.5825 118.629C82.765 118.606 85.8079 117.319 88.0417 115.053L101.448 101.448L95.7911 95.7911L82.3435 109.437C81.5989 110.193 80.5846 110.622 79.5238 110.63L39.6523 110.922C38.5914 110.93 37.5709 110.516 36.8153 109.771L16.737 89.9856L38.161 103.94C40.1347 105.225 42.443 105.902 44.7983 105.884L73.9017 105.671C77.0811 105.647 80.1213 104.363 82.3547 102.1L92.1624 92.1623L86.5054 86.5054L76.6607 96.4808C75.9162 97.2351 74.9028 97.6632 73.843 97.671L44.7397 97.8845C43.9546 97.8902 43.1851 97.6648 42.5272 97.2363L12.6439 77.7722C11.4491 76.9941 10.7589 75.6387 10.8323 74.2148L13.7315 17.9333C13.7895 16.8067 14.3115 15.8033 15.1117 15.1117L6.33314 6.33311Z" fill="black"/>
<path class="test" fill-rule="evenodd" clip-rule="evenodd" d="M6.33071 6.33075C8.41714 4.25354 11.2634 2.94111 14.4152 2.84066L80.0514 0.748825C83.3956 0.642243 86.6324 1.93672 88.9809 4.31993L115.467 31.1977C117.701 33.4646 118.943 36.526 118.92 39.7086L118.627 79.5801C118.604 82.7626 117.317 85.8055 115.05 88.0393L101.446 101.446L95.7887 95.7887L109.435 82.3411C110.191 81.5965 110.619 80.5822 110.627 79.5214L110.774 59.5856L110.92 39.6499C110.928 38.589 110.514 37.5686 109.769 36.8129L89.9832 16.7346L103.937 38.1586C105.223 40.1323 105.899 42.4406 105.882 44.796L105.668 73.8993C105.645 77.0787 104.361 80.1189 102.098 82.3523L92.1599 92.16L86.503 86.503L96.4784 76.6583C97.2327 75.9138 97.6608 74.9004 97.6686 73.8406L97.8821 44.7373C97.8878 43.9522 97.6624 43.1827 97.2339 42.5248L77.7698 12.6415C76.9917 11.4467 75.6363 10.7566 74.2124 10.8299L17.9309 13.7291C16.8043 13.7871 15.8009 14.3091 15.1093 15.1093L6.33071 6.33075Z" fill="black"/>
</svg>
